<svg xmlns="http://www.w3.org/2000/svg" viewBox="0 0 225.95 574.73"><defs><style>.cls-1{isolation:isolate;}.cls-2{fill:#b1c1c9;stroke-width:1.5px;mix-blend-mode:darken;}.cls-2,.cls-3{stroke:#2f6588;}.cls-10,.cls-11,.cls-12,.cls-2,.cls-3,.cls-4,.cls-5,.cls-6,.cls-7,.cls-8,.cls-9{stroke-miterlimit:10;}.cls-12,.cls-3{fill:none;}.cls-4,.cls-9{fill:#1d1d1b;}.cls-4{stroke:#1d1d1b;}.cls-5{fill:#563720;}.cls-10,.cls-11,.cls-12,.cls-5,.cls-6,.cls-7,.cls-8,.cls-9{stroke:#432918;}.cls-6{fill:#83674e;}.cls-7{fill:#432918;}.cls-8{fill:#7d5f2d;}.cls-10{fill:#3e1f13;}.cls-11{fill:#38180a;}.cls-12{stroke-width:0.5px;}</style></defs><title>tent1Ресурс 3</title><g class="cls-1"><g id="Слой_2" data-name="Слой 2"><g id="Слой_1-2" data-name="Слой 1"><g id="side_profile" data-name="side profile"><path class="cls-2" d="M223.62,91.64a18.2,18.2,0,0,0-3.6-2.07s-6.84-2.74-11.34-2.23-12.48.11-17.08,2.77-8.28,4.7-11.45,5.21-10.33,2.35-12.07,3.28-6,3.78-6.65,3.88-.31-1.43-1.94-.61-12.69,10.43-13.5,11-3.89-.51-4.81,2-.61,6.24-1.84,6.75-4.6.41-6.45,2.15-.92,3.88-2.86,4.8-10.53,7-12.58,7.27a12.76,12.76,0,0,0-6.24,3.27c-1.94,1.74-2.76,1.84-5,2.25s-3.58,2.83-4.81,1.19-1.91-2.72-3.81-2.59-1.1-1.09-3.69-.54-2.18-1.91-4.63-1.5-1.09.68-5.46-1-4-1.77-7.36-3.41-5.32-.95-5.18-3.68,1.63-4.23.27-6.27-5.46-2.87-4.23-4.09S71.8,117,77.39,118s11.46,4.36,11.87,1.09-5.25-4.91-.34-9.2,7-3.28,11-10.64,11.25-15.34,9-25,2.46-13.29.62-20.86,3.47-12.48-2.87-21.89S104.46,19.23,96.28,16s-15.75-9.61-22.09-11S59.66,1,59.66,1,43.57-.68,33.75,5.32,17.39,24.14,14.12,36.68,10.57,64.5,8.93,72.14s-2.72,24.27,0,26.73,14.46,5.73,14.46,8.45,6,3.82,3.27,4.91-8.73,3.82-9.54,6.28S4,130.78,3.21,142.23.75,165.42.75,165.42,3.13,227.28,5,236.49s9.21,22.7,8,30.07.61,30.68-1.23,39.27S6.81,342,8,348.17s5.52,40.5,4.91,43.57,2.46,17.79,1.84,20.86,2.6,10.28,4.51,11.37,6.27,4.1,4.36,10.1-5.45,15.27-6.54,19.36-7.64,22.91-5.19,44.19,3,28.36,3,31.09S19.84,574,19.84,574h48s8.72-29.73,9-36,4.09-37.09,3-38.73,6.27-36.55,7.91-39.82S93.21,441.7,93.48,439,128.8,416.47,130,388.25,116.12,308.06,116.94,297s-1.46-24.26.18-29.17,6.71-10.31,9.35-14.83c4.38-7.48,8.88-13.68,13-21s4.09-11.87,7.36-13.51,2.87-7.9,3.69-9.13,2.45,4.23,4.5-2.32,1.22-13.5,5.72-19.23,5.73-6.14,10.23-12.68,8.18-10.23,9.82-17.18,4.09-12.69,2.05-18.41-4.91-8.19-9-9-11.46.4-11.05-2.46,3.68-7.77,6.14-9.82,6.95-5.73,11.86-5.73,12.15-2.28,17.46,1.91c3.63,2.88,4.91,5.19,6.27,3.82s1.14-5.24.33-6.6-7.15-5.94-8-7,6.77-.16,8.58-.28c2.5-.17,3.84-3.58.1-4-1.47-.17-10.53-1.14-11.24-1.91s7.85-.06,10.86-.32,9.13,1.82,10.45,1c2-1.28-2.1-4.21,1.94-3.28.29.07-1.62-2.23-.76-1.73C222.41,97.34,228,94.78,223.62,91.64ZM131,201.69c-.79,2.05-3.45,10.43-5.91,13.09s-11.25,12.52-11.25,12.52-1.38-9.23-2.81-13.23c-2.9-8.09-5.36-28.54-9-34.47-1.81-2.91-1.43-4.5-1.43-4.5l1.43.61c4.09.41,8.38,3.07,12.07,0s15.13-9,16.77-10S125,175,125.43,182.77s-6,9.92-2.76,12.17S131.82,199.65,131,201.69Z"/><g id="detail"><path class="cls-3" d="M48.65,117.69a16.06,16.06,0,0,1,3.21,1.25c4.81,2.33,9.52,5.14,14.8,5.94a5.09,5.09,0,0,0,3-.21c.91-.43,2.68,1.52,2.33.59,1.54,2.14-1.77,4-.63,5.61.81,1.12.12,1.73,0,3.1-.17,2.64,1.55,5,3.17,7.06l26.13,33.44"/><path class="cls-3" d="M146,112.91c1.6,2.2,4,5.64,5.84,7.65,1,1.14,3,3.72,4.11,4.75"/><path class="cls-3" d="M161.43,102.48c.38,2.24,1.39,6.4,3.07,7.94a22.68,22.68,0,0,0,2,1.53c1.64,1.16,3.79,3.2,5.73,3.72"/><path class="cls-3" d="M131.1,128.51c2,2.16,5.66,9.18,6.67,12"/><path class="cls-3" d="M139.34,121.71c1.39-.75.93,3.45,2,4.65s3.7,5.4,4,7.06"/><path class="cls-3" d="M82.24,145.57c2.57-1.43,5.08-4.83,6.42-7.45"/><path class="cls-3" d="M84.47,148a26.18,26.18,0,0,0,8-8.5"/><path class="cls-3" d="M89.64,151.84c3.83-2.45,7.22-7.49,8.83-11.75"/><path class="cls-3" d="M93,154.28c2.69-2.55,7.67-8,8.41-11.64"/><path class="cls-3" d="M107.3,166.09l.67-5.56a22.57,22.57,0,0,0,.25-3.67c-.23-4.94-3.65-9.12-5-13.87"/><path class="cls-3" d="M129.1,207c3.9-1.33,7.06.59,10,3.47s4.56,6.87,5.54,10.87"/><path class="cls-3" d="M119,221.37c8,.62,15.54,9,16.24,17-7.32,9.78-19,34.79-34.42,46.64-2.89,2.22-6.15,4.31-9.79,4.43-5.28.19-9.88-3.85-12.42-8.47-2.24-4.07-4.2-7.83-6.22-12C62.55,248.58,52.69,228.15,45,206.85"/><path class="cls-3" d="M119,221.37c-4.41,5.81-11.35,12.86-16.15,18.44-.87-5.5-3.66-10.48-5.8-15.63-7.22-17.31-7.28-36.94-14.4-54.29-1.66-4-4.06-8.29-8.18-9.79-3.1-1.13-6.58-.45-9.66.73a31.55,31.55,0,0,0-18.07,18.4"/><path class="cls-3" d="M103.7,245.91c1.22,6.22-.56,12.72-3.61,18.28-3,5.39-7,10.05-11.11,14.67"/><path class="cls-3" d="M107.85,249.89c-.24,6.3,2.13,14.76,3.21,20.26"/><path class="cls-3" d="M110,235.55c3.64.22,6.77,2.7,9.14,5.47,2.67,3.13,6,8,6,13.43"/><path class="cls-3" d="M46,442.32c-3,15.83.37,29.7-2.68,45.17-5.44,27.62-6.12,57.13-6,85.28"/><line class="cls-3" x1="192.75" y1="379.47" x2="192.63" y2="379.65"/><path class="cls-3" d="M22.89,427.14c4.21,5.85,14.27,11.26,20.72,14,4.27,1.81,9.07,1.8,13.71,1.75,11.2-.1,26.46-.39,36.76-4.78"/><path class="cls-3" d="M112.49,287.37c-1.69,4.55-8.17,13.66-11.67,17a81.85,81.85,0,0,1-27,17.25"/><path class="cls-3" d="M18.08,263a85.42,85.42,0,0,0,25.7,30.8"/><path class="cls-3" d="M15,298.6a62.28,62.28,0,0,0,24.09,12.23"/></g><path class="cls-4" d="M115.7,189.84l3.34,1a9.27,9.27,0,0,1-3.52,1l3.09,1.06a12,12,0,0,0-4.52.7,9.1,9.1,0,0,0,2.75.28,3.39,3.39,0,0,1-2.4,1.92,47.31,47.31,0,0,1,6.83.56,1.39,1.39,0,0,0,.61,0,1.32,1.32,0,0,0,.48-.31,9.26,9.26,0,0,0,2.38-2.73,3.13,3.13,0,0,0-.25-3.43,4.06,4.06,0,0,1-.71-1.1C121.57,189.37,118,190.54,115.7,189.84Z"/><path class="cls-4" d="M116.53,196.27l3.34,1a9.46,9.46,0,0,1-3.53,1l3.1,1.06a11.76,11.76,0,0,0-4.52.69,8.77,8.77,0,0,0,2.75.29,3.4,3.4,0,0,1-2.4,1.91,47.42,47.42,0,0,1,6.83.56,1.26,1.26,0,0,0,.61,0c.18-.06,4.84.16,5,0,.91-.8-2.67-2-2.13-3.08a3.17,3.17,0,0,0-.25-3.43,3.83,3.83,0,0,1-.71-1.1C122.4,195.81,118.78,197,116.53,196.27Z"/><path class="cls-5" d="M149.56,128.57a19.46,19.46,0,0,1,13.8-4,26.6,26.6,0,0,1,7.15,1.89,27.35,27.35,0,0,1,9.2,5.76,23,23,0,0,1,6.35,16.64,30.79,30.79,0,0,1-6,17c-2.5,3.48-5.63,6.58-7.32,10.51-1.17,2.75-1.62,5.84-3.33,8.29a29.2,29.2,0,0,1-3.61,3.77c-5.86,5.84-8.51,14-10.62,22.1a3,3,0,0,1-3.9,2.12c-5.66-1.82-12-5.78-18.21-7.75a53.32,53.32,0,0,1-6.87-2.72c-4-1.88-8.06-4.82-8.61-9.17-.49-3.85,2-7.43,4.83-10.13a38.42,38.42,0,0,1,7.12-5.45c3.17-1.89,6.71-3.4,9.09-6.21,2.93-3.45,3.62-8.27,3.42-12.78-.27-5.83-2.37-12.19-.15-17.81C143.7,136.08,145.56,131.69,149.56,128.57Z"/><path class="cls-6" d="M133.81,162.11c-1.54.56-4.15,3.58-4.9,5-2.84,5.55-4.63,11.69-8.31,16.73-1.76,2.42-2.16,2.8-2.57,5.77-.13.9.89,2.49,3.14,3.58,1.09.53,2.68,1.39,4.1-.18a22.21,22.21,0,0,0,3.28-5.41l5-10.39c1.42-2.93,3-6.14,2.9-9.47C136.43,165.59,136.63,161.1,133.81,162.11Z"/><path class="cls-7" d="M145.25,135.1c.65-.89,1.58-1.84,2.68-1.66a2.48,2.48,0,0,1,1.73,1.67c1.13,2.87-.52,6.07-2.57,8.4a5.64,5.64,0,0,1-1.8,1.5,2.27,2.27,0,0,1-2.26-.11C139.64,142.4,143.57,137.41,145.25,135.1Z"/><path class="cls-8" d="M145.08,136.39c.55-.78,1.35-1.6,2.29-1.45a2.15,2.15,0,0,1,1.48,1.46c1,2.5-.45,5.3-2.2,7.34a4.93,4.93,0,0,1-1.54,1.3,1.92,1.92,0,0,1-1.94-.09C140.27,142.76,143.64,138.4,145.08,136.39Z"/><path class="cls-9" d="M142.7,142.45a2.49,2.49,0,0,1,2.05-2.52,3.42,3.42,0,0,1,.1,2.16c-.28.68-1.23,1.11-1.77.61"/><path class="cls-10" d="M156.57,164.08c0,4.16-.74,8.54-3.41,11.72a12,12,0,0,1-15.41,2.12,7.56,7.56,0,0,1-2.88-3.38c-1.05-2.71.13-5.84-.59-8.66a13.27,13.27,0,0,0-3.06-5c-4.35-5.16-8.8-10.41-14.51-14a22.19,22.19,0,0,1-3.93-2.76,5.13,5.13,0,0,1-1.67-4.31c.34-2,2.22-3.32,4.06-4.12,7.27-3.15,16-1.36,22.65,2.87C145.81,143.6,156.51,154,156.57,164.08Z"/><path class="cls-11" d="M170.9,133.77c.4-.51-.24-1.11-.61-1.63a2.44,2.44,0,0,1,.57-3.18,6.35,6.35,0,0,1,3.76-1.4,7.78,7.78,0,0,1,5.59,1.52,4,4,0,0,1,1.27,4.33,5.26,5.26,0,0,1-4,3.06"/><path class="cls-12" d="M155.65,157.54a10,10,0,0,1,11.16,3"/><path class="cls-12" d="M156.15,158.6l1.95.83a27.11,27.11,0,0,1,5.82,3,9.18,9.18,0,0,1,3.67,5.3"/><path class="cls-12" d="M152.91,149.37c0,.21.17.38.36.48,2.76,1.45,6,1.64,9.11,1.61a7.18,7.18,0,0,0,2.27-.28,2.55,2.55,0,0,0,1.62-1.52"/><path class="cls-12" d="M153.33,129.28a4.51,4.51,0,0,1,1.91,6.48,4.36,4.36,0,0,0-.64,1c-.25.76.18,1.57.21,2.36,0,1.23-.83,2.26-1.59,3.22a31.6,31.6,0,0,0-3.94,6"/></g><path class="cls-3" d="M216.35,93.72a14.59,14.59,0,0,0-8-.87c-2.74.29-15.15.49-15,5.68.06,1.74,0,4,1.7,5,.4.23,1.8,1.35,2.23,1.52"/><path class="cls-3" d="M215.35,95.47c-2.68-1.3-5.4-1.56-8.31-2.18a17.12,17.12,0,0,0-4.11,0"/></g></g></g></svg>